<svg width="71" height="59" viewBox="0 0 71 59" fill="none" xmlns="http://www.w3.org/2000/svg">
<g clip-path="url(#clip0_80716_3)">
<path d="M7.83233 7.71049C7.69837 3.69907 10.6955 0 14.7466 0H56.2585C60.3096 0 63.3068 3.69907 63.1728 7.71049C63.0441 11.5639 63.2112 16.5554 64.4159 20.6254C65.6244 24.708 67.6623 27.2885 71 27.6201V31.3799C67.6623 31.7115 65.6244 34.292 64.4159 38.3746C63.2112 42.4446 63.0441 47.4361 63.1728 51.2897C63.3068 55.3009 60.3096 59 56.2585 59H14.7466C10.6955 59 7.69837 55.3009 7.83246 51.2897C7.96101 47.4361 7.79391 42.4446 6.58913 38.3746C5.38075 34.292 3.33783 31.7115 0 31.3799V27.6201C3.33769 27.2885 5.38075 24.708 6.58913 20.6254C7.79391 16.5554 7.96101 11.5639 7.83233 7.71049V7.71049Z" fill="url(#paint0_linear_80716_3)"/>
<g filter="url(#filter0_d_80716_3)">
<path d="M37.0397 45.1836C43.5985 45.1836 47.5508 41.8348 47.5508 36.3112C47.5508 32.1359 44.7307 29.1132 40.5434 28.6347V28.4607C43.6198 27.9388 46.034 24.9596 46.034 21.6325C46.034 16.8918 42.4449 13.8037 36.9757 13.8037H24.6699V45.1836H37.0397ZM29.4555 17.7833H35.8221C39.283 17.7833 41.2484 19.3925 41.2484 22.3065C41.2484 25.4163 38.9626 27.1559 34.8179 27.1559H29.4555V17.7833V17.7833ZM29.4555 41.2041V30.8747H35.7792C40.3084 30.8747 42.6584 32.6143 42.6584 36.0068C42.6584 39.3992 40.3726 41.2041 36.057 41.2041H29.4555V41.2041Z" fill="url(#paint1_linear_80716_3)"/>
<path d="M37.0397 45.1836C43.5985 45.1836 47.5508 41.8348 47.5508 36.3112C47.5508 32.1359 44.7307 29.1132 40.5434 28.6347V28.4607C43.6198 27.9388 46.034 24.9596 46.034 21.6325C46.034 16.8918 42.4449 13.8037 36.9757 13.8037H24.6699V45.1836H37.0397ZM29.4555 17.7833H35.8221C39.283 17.7833 41.2484 19.3925 41.2484 22.3065C41.2484 25.4163 38.9626 27.1559 34.8179 27.1559H29.4555V17.7833V17.7833ZM29.4555 41.2041V30.8747H35.7792C40.3084 30.8747 42.6584 32.6143 42.6584 36.0068C42.6584 39.3992 40.3726 41.2041 36.057 41.2041H29.4555V41.2041Z" stroke="white"/>
</g>
</g>
<defs>
<filter id="filter0_d_80716_3" x="8.16992" y="1.30371" width="55.8809" height="64.3799" filterUnits="userSpaceOnUse" color-interpolation-filters="sRGB">
<feFlood flood-opacity="0" result="BackgroundImageFix"/>
<feColorMatrix in="SourceAlpha" type="matrix" values="0 0 0 0 0 0 0 0 0 0 0 0 0 0 0 0 0 0 127 0" result="hardAlpha"/>
<feOffset dy="4"/>
<feGaussianBlur stdDeviation="8"/>
<feColorMatrix type="matrix" values="0 0 0 0 0 0 0 0 0 0 0 0 0 0 0 0 0 0 0.15 0"/>
<feBlend mode="normal" in2="BackgroundImageFix" result="effect1_dropShadow_80716_3"/>
<feBlend mode="normal" in="SourceGraphic" in2="effect1_dropShadow_80716_3" result="shape"/>
</filter>
<linearGradient id="paint0_linear_80716_3" x1="10.55" y1="1.56148" x2="74.5823" y2="50.3038" gradientUnits="userSpaceOnUse">
<stop stop-color="#9013FE"/>
<stop offset="1" stop-color="#6610F2"/>
</linearGradient>
<linearGradient id="paint1_linear_80716_3" x1="26.8342" y1="15.8691" x2="41.5808" y2="39.7852" gradientUnits="userSpaceOnUse">
<stop stop-color="white"/>
<stop offset="1" stop-color="#F1E5FC"/>
</linearGradient>
<clipPath id="clip0_80716_3">
<rect width="71" height="59" fill="white"/>
</clipPath>
</defs>
</svg>
